<?xml version="1.0" encoding="UTF-8" standalone="no"?>
<!DOCTYPE svg PUBLIC "-//W3C//DTD SVG 1.1//EN"
 "http://www.w3.org/Graphics/SVG/1.1/DTD/svg11.dtd">
<!-- Generated by graphviz version 7.0.1 (20221109.1506)
 -->
<!-- Pages: 1 -->
<svg width="878pt" height="177pt"
 viewBox="0.00 0.00 878.00 177.00" xmlns="http://www.w3.org/2000/svg" xmlns:xlink="http://www.w3.org/1999/xlink">
<g id="graph0" class="graph" transform="scale(1 1) rotate(0) translate(4 173)">
<polygon fill="white" stroke="none" points="-4,4 -4,-173 874,-173 874,4 -4,4"/>
<!-- initial -->
<!-- state_0x140000b4060 -->
<g id="node2" class="node">
<title>state_0x140000b4060</title>
<ellipse fill="white" stroke="black" cx="109" cy="-77" rx="18" ry="18"/>
</g>
<!-- initial&#45;&gt;state_0x140000b4060 -->
<g id="edge1" class="edge">
<title>initial&#45;&gt;state_0x140000b4060</title>
<path fill="none" stroke="black" d="M54.19,-77C62.28,-77 71.22,-77 79.45,-77"/>
<polygon fill="black" stroke="black" points="79.31,-80.5 89.31,-77 79.31,-73.5 79.31,-80.5"/>
</g>
<!-- state_0x140000b4080 -->
<g id="node3" class="node">
<title>state_0x140000b4080</title>
<ellipse fill="white" stroke="black" cx="188" cy="-77" rx="18" ry="18"/>
</g>
<!-- state_0x140000b4060&#45;&gt;state_0x140000b4080 -->
<g id="edge2" class="edge">
<title>state_0x140000b4060&#45;&gt;state_0x140000b4080</title>
<path fill="none" stroke="black" d="M120.17,-91.7C126.36,-99.31 135,-107.86 145,-112 154.89,-116.1 164.22,-109.79 171.56,-101.45"/>
<polygon fill="black" stroke="black" points="174.28,-103.66 177.52,-93.58 168.7,-99.44 174.28,-103.66"/>
<text text-anchor="middle" x="148.5" y="-116.8" font-family="Times,serif" font-size="14.00">a</text>
</g>
<!-- state_0x140000b4060&#45;&gt;state_0x140000b4080 -->
<g id="edge3" class="edge">
<title>state_0x140000b4060&#45;&gt;state_0x140000b4080</title>
<path fill="none" stroke="black" d="M127.47,-77C136.53,-77 147.83,-77 158.14,-77"/>
<polygon fill="black" stroke="black" points="158.08,-80.5 168.08,-77 158.08,-73.5 158.08,-80.5"/>
<text text-anchor="middle" x="148.5" y="-80.8" font-family="Times,serif" font-size="14.00">b</text>
</g>
<!-- state_0x140000b4060&#45;&gt;state_0x140000b4080 -->
<g id="edge4" class="edge">
<title>state_0x140000b4060&#45;&gt;state_0x140000b4080</title>
<path fill="none" stroke="black" d="M124.31,-67.13C130.4,-63.51 137.76,-59.84 145,-58 151.21,-56.42 157.63,-57.69 163.54,-60.17"/>
<polygon fill="black" stroke="black" points="161.67,-63.14 172.12,-64.88 165.04,-57 161.67,-63.14"/>
<text text-anchor="middle" x="148.5" y="-61.8" font-family="Times,serif" font-size="14.00">c</text>
</g>
<!-- state_0x140000b4060&#45;&gt;state_0x140000b4080 -->
<g id="edge5" class="edge">
<title>state_0x140000b4060&#45;&gt;state_0x140000b4080</title>
<path fill="none" stroke="black" d="M118.96,-61.86C125.07,-53.11 134.03,-42.89 145,-38 155.85,-33.16 165.72,-41.32 173.16,-51.41"/>
<polygon fill="black" stroke="black" points="170.09,-53.11 178.45,-59.63 175.98,-49.33 170.09,-53.11"/>
<text text-anchor="middle" x="148.5" y="-41.8" font-family="Times,serif" font-size="14.00">d</text>
</g>
<!-- state_0x140000b40c0 -->
<g id="node4" class="node">
<title>state_0x140000b40c0</title>
<ellipse fill="white" stroke="black" cx="345" cy="-77" rx="18" ry="18"/>
</g>
<!-- state_0x140000b4080&#45;&gt;state_0x140000b40c0 -->
<g id="edge6" class="edge">
<title>state_0x140000b4080&#45;&gt;state_0x140000b40c0</title>
<path fill="none" stroke="black" d="M206.48,-77C233.02,-77 283.74,-77 315.62,-77"/>
<polygon fill="black" stroke="black" points="315.31,-80.5 325.31,-77 315.31,-73.5 315.31,-80.5"/>
<text text-anchor="middle" x="239.5" y="-80.8" font-family="Times,serif" font-size="14.00">&lt;nil&gt;</text>
</g>
<!-- state_0x140000b4120 -->
<g id="node5" class="node">
<title>state_0x140000b4120</title>
<ellipse fill="white" stroke="black" cx="453" cy="-34" rx="18" ry="18"/>
</g>
<!-- state_0x140000b4080&#45;&gt;state_0x140000b4120 -->
<g id="edge7" class="edge">
<title>state_0x140000b4080&#45;&gt;state_0x140000b4120</title>
<path fill="none" stroke="black" d="M205.98,-72.76C222.89,-68.64 249.63,-62.37 273,-58 325.66,-48.16 387.76,-40.76 423.24,-36.93"/>
<polygon fill="black" stroke="black" points="423.54,-40.42 433.12,-35.89 422.81,-33.46 423.54,-40.42"/>
<text text-anchor="middle" x="291" y="-61.8" font-family="Times,serif" font-size="14.00">h</text>
</g>
<!-- state_0x140000b4160 -->
<g id="node6" class="node">
<title>state_0x140000b4160</title>
<ellipse fill="white" stroke="black" cx="291" cy="-137" rx="18" ry="18"/>
</g>
<!-- state_0x140000b4080&#45;&gt;state_0x140000b4160 -->
<g id="edge8" class="edge">
<title>state_0x140000b4080&#45;&gt;state_0x140000b4160</title>
<path fill="none" stroke="black" d="M203.9,-85.85C220.01,-95.42 245.96,-110.84 265.17,-122.25"/>
<polygon fill="black" stroke="black" points="263.35,-125.24 273.73,-127.34 266.92,-119.22 263.35,-125.24"/>
<text text-anchor="middle" x="239.5" y="-118.8" font-family="Times,serif" font-size="14.00">i</text>
</g>
<!-- state_0x140000b40c0&#45;&gt;state_0x140000b40c0 -->
<g id="edge9" class="edge">
<title>state_0x140000b40c0&#45;&gt;state_0x140000b40c0</title>
<path fill="none" stroke="black" d="M335.68,-92.92C333.24,-103.15 336.35,-113 345,-113 350.27,-113 353.48,-109.34 354.64,-104.17"/>
<polygon fill="black" stroke="black" points="358.14,-104.33 354.37,-94.43 351.15,-104.52 358.14,-104.33"/>
<text text-anchor="middle" x="345" y="-116.8" font-family="Times,serif" font-size="14.00">*</text>
</g>
<!-- state_0x140000b40a0 -->
<g id="node7" class="node">
<title>state_0x140000b40a0</title>
<ellipse fill="white" stroke="black" cx="507" cy="-100" rx="18" ry="18"/>
</g>
<!-- state_0x140000b40c0&#45;&gt;state_0x140000b40a0 -->
<g id="edge10" class="edge">
<title>state_0x140000b40c0&#45;&gt;state_0x140000b40a0</title>
<path fill="none" stroke="black" d="M363.12,-79.46C390.55,-83.4 444.61,-91.18 477.8,-95.95"/>
<polygon fill="black" stroke="black" points="477.11,-99.38 487.5,-97.34 478.1,-92.45 477.11,-99.38"/>
<text text-anchor="middle" x="399" y="-90.8" font-family="Times,serif" font-size="14.00">g</text>
</g>
<!-- state_0x140000b4120&#45;&gt;state_0x140000b4120 -->
<g id="edge11" class="edge">
<title>state_0x140000b4120&#45;&gt;state_0x140000b4120</title>
<path fill="none" stroke="black" d="M443.68,-49.92C441.24,-60.15 444.35,-70 453,-70 458.27,-70 461.48,-66.34 462.64,-61.17"/>
<polygon fill="black" stroke="black" points="466.14,-61.33 462.37,-51.43 459.15,-61.52 466.14,-61.33"/>
<text text-anchor="middle" x="453" y="-73.8" font-family="Times,serif" font-size="14.00">*</text>
</g>
<!-- state_0x140000b41c0 -->
<g id="node8" class="node">
<title>state_0x140000b41c0</title>
<ellipse fill="white" stroke="black" cx="583" cy="-58" rx="18" ry="18"/>
</g>
<!-- state_0x140000b4120&#45;&gt;state_0x140000b41c0 -->
<g id="edge12" class="edge">
<title>state_0x140000b4120&#45;&gt;state_0x140000b41c0</title>
<path fill="none" stroke="black" d="M471,-37.19C492.13,-41.15 528.51,-47.97 553.83,-52.72"/>
<polygon fill="black" stroke="black" points="552.97,-56.12 563.44,-54.52 554.26,-49.24 552.97,-56.12"/>
<text text-anchor="middle" x="507" y="-50.8" font-family="Times,serif" font-size="14.00">/</text>
</g>
<!-- state_0x140000b4180 -->
<g id="node9" class="node">
<title>state_0x140000b4180</title>
<ellipse fill="white" stroke="black" cx="399" cy="-151" rx="18" ry="18"/>
</g>
<!-- state_0x140000b4160&#45;&gt;state_0x140000b4180 -->
<g id="edge13" class="edge">
<title>state_0x140000b4160&#45;&gt;state_0x140000b4180</title>
<path fill="none" stroke="black" d="M309.03,-139.25C325.31,-141.4 350.18,-144.68 369.48,-147.23"/>
<polygon fill="black" stroke="black" points="368.79,-150.67 379.16,-148.51 369.7,-143.73 368.79,-150.67"/>
<text text-anchor="middle" x="345" y="-149.8" font-family="Times,serif" font-size="14.00">/</text>
</g>
<!-- state_0x140000b40a0&#45;&gt;state_0x140000b41c0 -->
<g id="edge14" class="edge">
<title>state_0x140000b40a0&#45;&gt;state_0x140000b41c0</title>
<path fill="none" stroke="black" d="M522.98,-91.5C532.74,-85.96 545.72,-78.59 557.03,-72.17"/>
<polygon fill="black" stroke="black" points="558.51,-75.36 565.48,-67.38 555.05,-69.27 558.51,-75.36"/>
<text text-anchor="middle" x="545" y="-82.8" font-family="Times,serif" font-size="14.00">/</text>
</g>
<!-- state_0x140000b4260 -->
<g id="node10" class="node">
<title>state_0x140000b4260</title>
<ellipse fill="white" stroke="black" cx="848" cy="-74" rx="18" ry="18"/>
<ellipse fill="none" stroke="black" cx="848" cy="-74" rx="22" ry="22"/>
</g>
<!-- state_0x140000b41c0&#45;&gt;state_0x140000b4260 -->
<g id="edge15" class="edge">
<title>state_0x140000b41c0&#45;&gt;state_0x140000b4260</title>
<path fill="none" stroke="black" d="M600.53,-63.15C617.32,-68.09 644.18,-75.2 668,-78 718.9,-83.98 778.48,-80.6 814.45,-77.43"/>
<polygon fill="black" stroke="black" points="814.55,-80.94 824.19,-76.52 813.9,-73.97 814.55,-80.94"/>
<text text-anchor="middle" x="725.5" y="-84.8" font-family="Times,serif" font-size="14.00">k</text>
</g>
<!-- state_0x140000b4220 -->
<g id="node11" class="node">
<title>state_0x140000b4220</title>
<ellipse fill="white" stroke="black" cx="686" cy="-18" rx="18" ry="18"/>
</g>
<!-- state_0x140000b41c0&#45;&gt;state_0x140000b4220 -->
<g id="edge16" class="edge">
<title>state_0x140000b41c0&#45;&gt;state_0x140000b4220</title>
<path fill="none" stroke="black" d="M600.23,-51.57C615.84,-45.39 639.71,-35.93 658.16,-28.63"/>
<polygon fill="black" stroke="black" points="659.4,-31.9 667.41,-24.97 656.82,-25.4 659.4,-31.9"/>
<text text-anchor="middle" x="634.5" y="-46.8" font-family="Times,serif" font-size="14.00">&lt;nil&gt;</text>
</g>
<!-- state_0x140000b4180&#45;&gt;state_0x140000b40a0 -->
<g id="edge17" class="edge">
<title>state_0x140000b4180&#45;&gt;state_0x140000b40a0</title>
<path fill="none" stroke="black" d="M415.64,-143.47C432.55,-135.34 459.78,-122.24 479.94,-112.54"/>
<polygon fill="black" stroke="black" points="481.44,-115.7 488.93,-108.21 478.4,-109.39 481.44,-115.7"/>
<text text-anchor="middle" x="453" y="-136.8" font-family="Times,serif" font-size="14.00">j</text>
</g>
<!-- state_0x140000b4220&#45;&gt;state_0x140000b4220 -->
<g id="edge18" class="edge">
<title>state_0x140000b4220&#45;&gt;state_0x140000b4220</title>
<path fill="none" stroke="black" d="M679,-35.04C677.57,-44.86 679.91,-54 686,-54 689.52,-54 691.79,-50.94 692.8,-46.47"/>
<polygon fill="black" stroke="black" points="696.3,-46.61 692.97,-36.55 689.3,-46.49 696.3,-46.61"/>
<text text-anchor="middle" x="686" y="-57.8" font-family="Times,serif" font-size="14.00">**</text>
</g>
<!-- state_0x140000b41e0 -->
<g id="node12" class="node">
<title>state_0x140000b41e0</title>
<ellipse fill="white" stroke="black" cx="765" cy="-43" rx="18" ry="18"/>
</g>
<!-- state_0x140000b4220&#45;&gt;state_0x140000b41e0 -->
<g id="edge19" class="edge">
<title>state_0x140000b4220&#45;&gt;state_0x140000b41e0</title>
<path fill="none" stroke="black" d="M703.33,-23.3C712.96,-26.43 725.4,-30.47 736.51,-34.07"/>
<polygon fill="black" stroke="black" points="735.4,-37.39 745.99,-37.15 737.56,-30.74 735.4,-37.39"/>
<text text-anchor="middle" x="725.5" y="-34.8" font-family="Times,serif" font-size="14.00">/</text>
</g>
<!-- state_0x140000b41e0&#45;&gt;state_0x140000b4260 -->
<g id="edge20" class="edge">
<title>state_0x140000b41e0&#45;&gt;state_0x140000b4260</title>
<path fill="none" stroke="black" d="M782.39,-49.27C792.13,-53 804.79,-57.85 816.33,-62.26"/>
<polygon fill="black" stroke="black" points="814.9,-65.46 825.49,-65.77 817.4,-58.92 814.9,-65.46"/>
<text text-anchor="middle" x="804.5" y="-61.8" font-family="Times,serif" font-size="14.00">k</text>
</g>
</g>
</svg>
