<?xml version="1.0" encoding="UTF-8" standalone="no"?>
<!DOCTYPE svg PUBLIC "-//W3C//DTD SVG 1.1//EN"
 "http://www.w3.org/Graphics/SVG/1.1/DTD/svg11.dtd">
<!-- Generated by graphviz version 7.0.1 (20221109.1506)
 -->
<!-- Pages: 1 -->
<svg width="716pt" height="188pt"
 viewBox="0.00 0.00 716.00 188.00" xmlns="http://www.w3.org/2000/svg" xmlns:xlink="http://www.w3.org/1999/xlink">
<g id="graph0" class="graph" transform="scale(1 1) rotate(0) translate(4 184)">
<polygon fill="white" stroke="none" points="-4,4 -4,-184 712,-184 712,4 -4,4"/>
<!-- initial -->
<!-- state_0x14000114030 -->
<g id="node2" class="node">
<title>state_0x14000114030</title>
<ellipse fill="none" stroke="black" cx="109" cy="-77" rx="18" ry="18"/>
</g>
<!-- initial&#45;&gt;state_0x14000114030 -->
<g id="edge1" class="edge">
<title>initial&#45;&gt;state_0x14000114030</title>
<path fill="none" stroke="black" d="M54.19,-77C62.28,-77 71.22,-77 79.45,-77"/>
<polygon fill="black" stroke="black" points="79.31,-80.5 89.31,-77 79.31,-73.5 79.31,-80.5"/>
</g>
<!-- state_0x14000114048 -->
<g id="node3" class="node">
<title>state_0x14000114048</title>
<ellipse fill="none" stroke="black" cx="188" cy="-77" rx="18" ry="18"/>
</g>
<!-- state_0x14000114030&#45;&gt;state_0x14000114048 -->
<g id="edge2" class="edge">
<title>state_0x14000114030&#45;&gt;state_0x14000114048</title>
<path fill="none" stroke="black" d="M120.17,-91.7C126.36,-99.31 135,-107.86 145,-112 154.89,-116.1 164.22,-109.79 171.56,-101.45"/>
<polygon fill="black" stroke="black" points="174.28,-103.66 177.52,-93.58 168.7,-99.44 174.28,-103.66"/>
<text text-anchor="middle" x="148.5" y="-116.8" font-family="Times,serif" font-size="14.00">a</text>
</g>
<!-- state_0x14000114030&#45;&gt;state_0x14000114048 -->
<g id="edge3" class="edge">
<title>state_0x14000114030&#45;&gt;state_0x14000114048</title>
<path fill="none" stroke="black" d="M127.47,-77C136.53,-77 147.83,-77 158.14,-77"/>
<polygon fill="black" stroke="black" points="158.08,-80.5 168.08,-77 158.08,-73.5 158.08,-80.5"/>
<text text-anchor="middle" x="148.5" y="-80.8" font-family="Times,serif" font-size="14.00">b</text>
</g>
<!-- state_0x14000114030&#45;&gt;state_0x14000114048 -->
<g id="edge4" class="edge">
<title>state_0x14000114030&#45;&gt;state_0x14000114048</title>
<path fill="none" stroke="black" d="M124.31,-67.13C130.4,-63.51 137.76,-59.84 145,-58 151.21,-56.42 157.63,-57.69 163.54,-60.17"/>
<polygon fill="black" stroke="black" points="161.67,-63.14 172.12,-64.88 165.04,-57 161.67,-63.14"/>
<text text-anchor="middle" x="148.5" y="-61.8" font-family="Times,serif" font-size="14.00">c</text>
</g>
<!-- state_0x14000114030&#45;&gt;state_0x14000114048 -->
<g id="edge5" class="edge">
<title>state_0x14000114030&#45;&gt;state_0x14000114048</title>
<path fill="none" stroke="black" d="M118.96,-61.86C125.07,-53.11 134.03,-42.89 145,-38 155.85,-33.16 165.72,-41.32 173.16,-51.41"/>
<polygon fill="black" stroke="black" points="170.09,-53.11 178.45,-59.63 175.98,-49.33 170.09,-53.11"/>
<text text-anchor="middle" x="148.5" y="-41.8" font-family="Times,serif" font-size="14.00">d</text>
</g>
<!-- state_0x14000114090 -->
<g id="node4" class="node">
<title>state_0x14000114090</title>
<ellipse fill="none" stroke="black" cx="321" cy="-96" rx="18" ry="18"/>
</g>
<!-- state_0x14000114048&#45;&gt;state_0x14000114090 -->
<g id="edge6" class="edge">
<title>state_0x14000114048&#45;&gt;state_0x14000114090</title>
<path fill="none" stroke="black" d="M206.13,-79.48C227.8,-82.63 265.44,-88.09 291.48,-91.86"/>
<polygon fill="black" stroke="black" points="290.97,-95.33 301.37,-93.3 291.98,-88.4 290.97,-95.33"/>
<text text-anchor="middle" x="227.5" y="-85.8" font-family="Times,serif" font-size="14.00">*</text>
</g>
<!-- state_0x14000114078 -->
<g id="node5" class="node">
<title>state_0x14000114078</title>
<ellipse fill="none" stroke="black" cx="451" cy="-105" rx="18" ry="18"/>
</g>
<!-- state_0x14000114048&#45;&gt;state_0x14000114078 -->
<g id="edge7" class="edge">
<title>state_0x14000114048&#45;&gt;state_0x14000114078</title>
<path fill="none" stroke="black" d="M205.33,-70.59C233.02,-60.6 290.87,-43.47 339,-54 370.51,-60.89 403.77,-77.6 425.57,-90.03"/>
<polygon fill="black" stroke="black" points="423.58,-92.92 433.98,-94.95 427.12,-86.88 423.58,-92.92"/>
<text text-anchor="middle" x="321" y="-57.8" font-family="Times,serif" font-size="14.00">g</text>
</g>
<!-- state_0x14000114108 -->
<g id="node6" class="node">
<title>state_0x14000114108</title>
<ellipse fill="none" stroke="black" cx="451" cy="-18" rx="18" ry="18"/>
</g>
<!-- state_0x14000114048&#45;&gt;state_0x14000114108 -->
<g id="edge8" class="edge">
<title>state_0x14000114048&#45;&gt;state_0x14000114108</title>
<path fill="none" stroke="black" d="M203.87,-68.38C215.76,-61.79 233.03,-52.85 249,-47 272.5,-38.39 278.41,-35.68 303,-31 343.7,-23.25 391.64,-20.1 421.43,-18.84"/>
<polygon fill="black" stroke="black" points="421.27,-22.35 431.13,-18.47 421.01,-15.35 421.27,-22.35"/>
<text text-anchor="middle" x="321" y="-34.8" font-family="Times,serif" font-size="14.00">h</text>
</g>
<!-- state_0x14000114168 -->
<g id="node7" class="node">
<title>state_0x14000114168</title>
<ellipse fill="none" stroke="black" cx="267" cy="-156" rx="18" ry="18"/>
</g>
<!-- state_0x14000114048&#45;&gt;state_0x14000114168 -->
<g id="edge9" class="edge">
<title>state_0x14000114048&#45;&gt;state_0x14000114168</title>
<path fill="none" stroke="black" d="M200.82,-90.17C207.52,-97.56 216.13,-106.89 224,-115 230.79,-121.99 238.37,-129.48 245.2,-136.12"/>
<polygon fill="black" stroke="black" points="242.62,-138.49 252.24,-142.92 247.48,-133.46 242.62,-138.49"/>
<text text-anchor="middle" x="227.5" y="-124.8" font-family="Times,serif" font-size="14.00">i</text>
</g>
<!-- state_0x14000114090&#45;&gt;state_0x14000114090 -->
<g id="edge10" class="edge">
<title>state_0x14000114090&#45;&gt;state_0x14000114090</title>
<path fill="none" stroke="black" d="M311.68,-111.92C309.24,-122.15 312.35,-132 321,-132 326.27,-132 329.48,-128.34 330.64,-123.17"/>
<polygon fill="black" stroke="black" points="334.14,-123.33 330.37,-113.43 327.15,-123.52 334.14,-123.33"/>
<text text-anchor="middle" x="321" y="-135.8" font-family="Times,serif" font-size="14.00">*</text>
</g>
<!-- state_0x14000114090&#45;&gt;state_0x14000114078 -->
<g id="edge11" class="edge">
<title>state_0x14000114090&#45;&gt;state_0x14000114078</title>
<path fill="none" stroke="black" d="M339.26,-97.21C360.26,-98.69 396,-101.2 421.19,-102.97"/>
<polygon fill="black" stroke="black" points="420.87,-106.46 431.09,-103.67 421.36,-99.48 420.87,-106.46"/>
<text text-anchor="middle" x="375" y="-103.8" font-family="Times,serif" font-size="14.00">g</text>
</g>
<!-- state_0x14000114210 -->
<g id="node8" class="node">
<title>state_0x14000114210</title>
<ellipse fill="none" stroke="black" cx="603" cy="-52" rx="18" ry="18"/>
</g>
<!-- state_0x14000114078&#45;&gt;state_0x14000114210 -->
<g id="edge12" class="edge">
<title>state_0x14000114078&#45;&gt;state_0x14000114210</title>
<path fill="none" stroke="black" d="M468.55,-110.72C487.76,-116.36 520,-122.73 545,-112 562,-104.7 576.32,-89.57 586.35,-76.33"/>
<polygon fill="black" stroke="black" points="589.05,-78.57 592,-68.39 583.35,-74.51 589.05,-78.57"/>
<text text-anchor="middle" x="527" y="-120.8" font-family="Times,serif" font-size="14.00">/</text>
</g>
<!-- state_0x140001142b8 -->
<g id="node9" class="node">
<title>state_0x140001142b8</title>
<ellipse fill="none" stroke="black" cx="527" cy="-52" rx="18" ry="18"/>
</g>
<!-- state_0x14000114078&#45;&gt;state_0x140001142b8 -->
<g id="edge13" class="edge">
<title>state_0x14000114078&#45;&gt;state_0x140001142b8</title>
<path fill="none" stroke="black" d="M466.27,-94.78C476.51,-87.45 490.53,-77.4 502.42,-68.89"/>
<polygon fill="black" stroke="black" points="504.45,-71.74 510.55,-63.07 500.38,-66.05 504.45,-71.74"/>
<text text-anchor="middle" x="489" y="-81.8" font-family="Times,serif" font-size="14.00">/</text>
</g>
<!-- state_0x14000114108&#45;&gt;state_0x14000114108 -->
<g id="edge14" class="edge">
<title>state_0x14000114108&#45;&gt;state_0x14000114108</title>
<path fill="none" stroke="black" d="M444.27,-35.04C442.89,-44.86 445.14,-54 451,-54 454.39,-54 456.57,-50.94 457.54,-46.47"/>
<polygon fill="black" stroke="black" points="461.04,-46.61 457.71,-36.55 454.04,-46.49 461.04,-46.61"/>
<text text-anchor="middle" x="451" y="-57.8" font-family="Times,serif" font-size="14.00">*</text>
</g>
<!-- state_0x14000114108&#45;&gt;state_0x14000114210 -->
<g id="edge15" class="edge">
<title>state_0x14000114108&#45;&gt;state_0x14000114210</title>
<path fill="none" stroke="black" d="M468.58,-12.71C487.55,-7.53 519.29,-1.55 545,-10 558.41,-14.41 571.26,-23.31 581.35,-31.79"/>
<polygon fill="black" stroke="black" points="578.87,-34.26 588.66,-38.31 583.53,-29.04 578.87,-34.26"/>
<text text-anchor="middle" x="527" y="-13.8" font-family="Times,serif" font-size="14.00">/</text>
</g>
<!-- state_0x14000114108&#45;&gt;state_0x140001142b8 -->
<g id="edge16" class="edge">
<title>state_0x14000114108&#45;&gt;state_0x140001142b8</title>
<path fill="none" stroke="black" d="M467.69,-25.21C477.05,-29.51 489.16,-35.07 499.92,-40.02"/>
<polygon fill="black" stroke="black" points="498.15,-43.06 508.7,-44.05 501.07,-36.7 498.15,-43.06"/>
<text text-anchor="middle" x="489" y="-38.8" font-family="Times,serif" font-size="14.00">/</text>
</g>
<!-- state_0x14000114198 -->
<g id="node10" class="node">
<title>state_0x14000114198</title>
<ellipse fill="none" stroke="black" cx="375" cy="-162" rx="18" ry="18"/>
</g>
<!-- state_0x14000114168&#45;&gt;state_0x14000114198 -->
<g id="edge17" class="edge">
<title>state_0x14000114168&#45;&gt;state_0x14000114198</title>
<path fill="none" stroke="black" d="M285.03,-156.96C301.24,-157.88 325.94,-159.28 345.21,-160.37"/>
<polygon fill="black" stroke="black" points="344.97,-163.86 355.15,-160.93 345.36,-156.87 344.97,-163.86"/>
<text text-anchor="middle" x="321" y="-162.8" font-family="Times,serif" font-size="14.00">/</text>
</g>
<!-- state_0x14000114330 -->
<g id="node11" class="node">
<title>state_0x14000114330</title>
<ellipse fill="none" stroke="black" cx="686" cy="-52" rx="18" ry="18"/>
<ellipse fill="none" stroke="black" cx="686" cy="-52" rx="22" ry="22"/>
</g>
<!-- state_0x14000114210&#45;&gt;state_0x14000114330 -->
<g id="edge18" class="edge">
<title>state_0x14000114210&#45;&gt;state_0x14000114330</title>
<path fill="none" stroke="black" d="M621.18,-52C630.15,-52 641.45,-52 652.03,-52"/>
<polygon fill="black" stroke="black" points="652,-55.5 662,-52 652,-48.5 652,-55.5"/>
<text text-anchor="middle" x="642.5" y="-55.8" font-family="Times,serif" font-size="14.00">k</text>
</g>
<!-- state_0x140001142b8&#45;&gt;state_0x14000114210 -->
<g id="edge20" class="edge">
<title>state_0x140001142b8&#45;&gt;state_0x14000114210</title>
<path fill="none" stroke="black" d="M545.16,-52C553.51,-52 563.77,-52 573.26,-52"/>
<polygon fill="black" stroke="black" points="573.16,-55.5 583.16,-52 573.16,-48.5 573.16,-55.5"/>
<text text-anchor="middle" x="565" y="-55.8" font-family="Times,serif" font-size="14.00">/</text>
</g>
<!-- state_0x140001142b8&#45;&gt;state_0x140001142b8 -->
<g id="edge19" class="edge">
<title>state_0x140001142b8&#45;&gt;state_0x140001142b8</title>
<path fill="none" stroke="black" d="M520.27,-69.04C518.89,-78.86 521.14,-88 527,-88 530.39,-88 532.57,-84.94 533.54,-80.47"/>
<polygon fill="black" stroke="black" points="537.04,-80.61 533.71,-70.55 530.04,-80.49 537.04,-80.61"/>
<text text-anchor="middle" x="527" y="-91.8" font-family="Times,serif" font-size="14.00">**</text>
</g>
<!-- state_0x14000114198&#45;&gt;state_0x14000114078 -->
<g id="edge21" class="edge">
<title>state_0x14000114198&#45;&gt;state_0x14000114078</title>
<path fill="none" stroke="black" d="M389.92,-151.28C400.36,-143.24 414.88,-132.05 427.03,-122.69"/>
<polygon fill="black" stroke="black" points="429.16,-125.47 434.94,-116.6 424.89,-119.93 429.16,-125.47"/>
<text text-anchor="middle" x="413" y="-136.8" font-family="Times,serif" font-size="14.00">j</text>
</g>
</g>
</svg>
